<svg xmlns="http://www.w3.org/2000/svg" viewBox="0 0 2560 1149" width="2560px" height="1149px">
  <clipPath id="a">
    <path d="M0 0h2560v1164H0z"/>
  </clipPath>
  <clipPath id="b">
    <path d="M0-1h2560v1152H0z"/>
  </clipPath>
  <clipPath id="c">
    <path d="M1832.8 334.6c2.2 0 30 .5 30 .5l-15.5-83.1z"/>
  </clipPath>
  <clipPath id="d">
    <path d="M0-1h2560v1152H0z"/>
  </clipPath>
  <clipPath id="e">
    <path d="M1845.6 346.1l1.3-45.8h.8l2 45.9z"/>
  </clipPath>
  <clipPath id="f">
    <path d="M0-1h2560v1152H0z"/>
  </clipPath>
  <clipPath id="g">
    <path d="M1921.1 328.4c1.4 0 18.5.3 18.5.3l-9.6-51.2z"/>
  </clipPath>
  <clipPath id="h">
    <path d="M0-1h2560v1152H0z"/>
  </clipPath>
  <clipPath id="i">
    <path d="M1804 335.3c1.4 0 18.5.3 18.5.3l-9.6-51.2z"/>
  </clipPath>
  <clipPath id="j">
    <path d="M0-1h2560v1152H0z"/>
  </clipPath>
  <clipPath id="k">
    <path d="M1844.1 336.9c2 0 27.4.4 27.4.4l-14.2-76z"/>
  </clipPath>
  <clipPath id="l">
    <path d="M0-1h2560v1152H0z"/>
  </clipPath>
  <clipPath id="m">
    <path d="M1855.6 348.7l1.2-45.8h.9l2 45.8z"/>
  </clipPath>
  <clipPath id="n">
    <path d="M0-1h2560v1152H0z"/>
  </clipPath>
  <clipPath id="o">
    <path d="M1887.2 323c2.1 0 28.1.4 28.1.4l-14.5-77.7z"/>
  </clipPath>
  <clipPath id="p">
    <path d="M0-1h2560v1152H0z"/>
  </clipPath>
  <clipPath id="q">
    <path d="M1811.6 355.5l1.1-40.5h.8l1.8 40.6z"/>
  </clipPath>
  <clipPath id="r">
    <path d="M0-1h2560v1152H0z"/>
  </clipPath>
  <clipPath id="s">
    <path d="M1929.6 343.9l1-35.7h.7l1.5 35.7z"/>
  </clipPath>
  <clipPath id="t">
    <path d="M0-1h2560v1152H0z"/>
  </clipPath>
  <clipPath id="u">
    <path d="M1899.6 337.8l1-35.7h.7l1.5 35.8z"/>
  </clipPath>
  <clipPath id="v">
    <path d="M0-1h2560v1152H0z"/>
  </clipPath>
  <clipPath id="w">
    <path d="M686.2 344.7c4.5.1 60.5 1 60.5 1l-31.3-167.5z"/>
  </clipPath>
  <clipPath id="x">
    <path d="M0-1h2560v1152H0z"/>
  </clipPath>
  <clipPath id="y">
    <path d="M711.9 367.8l2.6-92.2h1.7l4 92.4z"/>
  </clipPath>
  <clipPath id="z">
    <path d="M0-1h2560v1152H0z"/>
  </clipPath>
  <clipPath id="A">
    <path d="M865 379.8c2.8 0 37.2.6 37.2.6L883 277.3z"/>
  </clipPath>
  <clipPath id="B">
    <path d="M0-1h2560v1152H0z"/>
  </clipPath>
  <clipPath id="C">
    <path d="M660.7 317c2.8 0 37.2.6 37.2.6l-19.3-103.1z"/>
  </clipPath>
  <clipPath id="D">
    <path d="M0-1h2560v1152H0z"/>
  </clipPath>
  <clipPath id="E">
    <path d="M764 368c4.1.1 55.3.9 55.3.9l-28.6-153.1z"/>
  </clipPath>
  <clipPath id="F">
    <path d="M0-1h2560v1152H0z"/>
  </clipPath>
  <clipPath id="G">
    <path d="M787.1 391.6l2.6-92.2h1.8l4 92.4z"/>
  </clipPath>
  <clipPath id="H">
    <path d="M0-1h2560v1152H0z"/>
  </clipPath>
  <clipPath id="I">
    <path d="M796.6 361.8c4.2.1 56.6.9 56.6.9l-29.3-156.6z"/>
  </clipPath>
  <clipPath id="J">
    <path d="M0-1h2560v1152H0z"/>
  </clipPath>
  <clipPath id="K">
    <path d="M676 357.8l2.2-81.7h1.6l3.6 81.8z"/>
  </clipPath>
  <clipPath id="L">
    <path d="M0-1h2560v1152H0z"/>
  </clipPath>
  <clipPath id="M">
    <path d="M882.1 411l2-72h1.4l3.1 72.1z"/>
  </clipPath>
  <clipPath id="N">
    <path d="M0-1h2560v1152H0z"/>
  </clipPath>
  <clipPath id="O">
    <path d="M820.2 392.2l2.6-92.3h1.8l4 92.4z"/>
  </clipPath>
  <clipPath id="P">
    <path d="M0-1h2560v1152H0z"/>
  </clipPath>
  <clipPath id="Q">
    <path d="M581.1 476.3c32.3-35.5 100.5-76.1 147.2-87.4 40.4-9.8 82.6-12.9 123.6-6.1 38.1 6.3 74.2 21 109.9 35.5 12.5 5.1 25 10.2 37.2 16.1"/>
  </clipPath>
  <clipPath id="R">
    <path d="M0-1h2560v1152H0z"/>
  </clipPath>
  <clipPath id="S">
    <path d="M892.6 398.6c1.2-8.1 4.6-15.7 8.7-22.8 4.3-7.4 9.7-14.5 17-19s16.9-6 24.6-2.2c6.1 3 10.2 8.9 13.8 14.7 5.7 9.2 10.5 19 14.4 29.1"/>
  </clipPath>
  <clipPath id="T">
    <path d="M0-1h2560v1152H0z"/>
  </clipPath>
  <clipPath id="U">
    <path d="M1010.9 475c.6-32.2 9.6-64.1 25.5-90.8 5.1-8.5 11-16.7 18.6-22.3s17.2-8.4 26-5.6c11.3 3.6 18.9 15.4 25 26.8 11.9 22.3 21.5 46.1 28.5 70.9"/>
  </clipPath>
  <clipPath id="V">
    <path d="M0-1h2560v1152H0z"/>
  </clipPath>
  <clipPath id="W">
    <path d="M841.4 492.8c-.5-28.4 4.4-57.1 13.7-81 3.7-9.5 8.1-18.4 13.7-24.8 5.6-6.5 12.2-10.3 18.9-12.8 16.6-6.3 34.2-4.9 50.2 4 6.4 3.5 12.6 8.3 17.6 16 6.2 9.7 9.8 23.2 13.8 35.8 5.2 16.5 11.4 32 18.5 46.4"/>
  </clipPath>
  <clipPath id="X">
    <path d="M0-1h2560v1152H0z"/>
  </clipPath>
  <clipPath id="Y">
    <path d="M936.8 490.1c4.9-39.7 9.9-79.9 21.7-116.5 3.9-12 8.7-23.9 15.9-32.2 6.2-7.2 13.9-11.3 21.7-13.4 7-1.8 14.4-2 21.2 1.4 11.7 6 19.6 21.8 24.7 38 10.3 32.6 12.9 69.2 22.5 102-1.3 0-2.5-.1-3.8-.1"/>
  </clipPath>
  <clipPath id="Z">
    <path d="M0-1h2560v1152H0z"/>
  </clipPath>
  <clipPath id="aa">
    <path d="M1307.1 395.9l-26.1.8-2.9-90.1 25.7-12.5z"/>
  </clipPath>
  <clipPath id="ab">
    <path d="M0-1h2560v1152H0z"/>
  </clipPath>
  <clipPath id="ac">
    <path d="M1400.7 365l-32.5 1-2.6-81.8 32.2-11.6z"/>
  </clipPath>
  <clipPath id="ad">
    <path d="M0-1h2560v1152H0z"/>
  </clipPath>
  <clipPath id="ae">
    <path d="M1348 275.8l-31.5 2.9 6.7 107.5 28.4-.9z"/>
  </clipPath>
  <clipPath id="af">
    <path d="M0-1h2560v1152H0z"/>
  </clipPath>
  <clipPath id="ag">
    <path d="M1425.6 208l-17.3 156.8 44.6-1.5z"/>
  </clipPath>
  <clipPath id="ah">
    <path d="M0-1h2560v1152H0z"/>
  </clipPath>
  <clipPath id="ai">
    <path d="M1464.2 289l-27.9.9 2.3 73.9 28-.9z"/>
  </clipPath>
  <clipPath id="aj">
    <path d="M0-1h2560v1152H0z"/>
  </clipPath>
  <clipPath id="ak">
    <path d="M1510.9 246.6l-27.9.9 3.6 113.2 28-.9z"/>
  </clipPath>
  <clipPath id="al">
    <path d="M0-1h2560v1152H0z"/>
  </clipPath>
  <clipPath id="am">
    <path d="M1572.5 258.3l-40 1.3 3.2 99.5 40-1.2z"/>
  </clipPath>
  <clipPath id="an">
    <path d="M0-1h2560v1152H0z"/>
  </clipPath>
  <clipPath id="ao">
    <path d="M1656.9 288.1l-60.8 1.9-.3-9.4 60.8-2z"/>
  </clipPath>
  <clipPath id="ap">
    <path d="M0-1h2560v1152H0z"/>
  </clipPath>
  <clipPath id="aq">
    <path d="M1596.4 296.4h60.9v9.5h-60.9z" transform="matrix(.9995 -.03118 .03118 .9995 -8.5989 50.8795)"/>
  </clipPath>
  <clipPath id="ar">
    <path d="M0-1h2560v1152H0z"/>
  </clipPath>
  <clipPath id="as">
    <path d="M1658 321.6l-60.9 2-.3-9.5 60.9-1.9z"/>
  </clipPath>
  <clipPath id="at">
    <path d="M0-1h2560v1152H0z"/>
  </clipPath>
  <clipPath id="au">
    <path d="M1658.6 338.4l-60.9 2-.3-9.5 60.8-2z"/>
  </clipPath>
  <clipPath id="av">
    <path d="M0-1h2560v1152H0z"/>
  </clipPath>
  <clipPath id="aw">
    <path d="M1659.1 355.2l-60.9 1.9-.3-9.4 60.9-2z"/>
  </clipPath>
  <clipPath id="ax">
    <path d="M0-1h2560v1152H0z"/>
  </clipPath>
  <clipPath id="ay">
    <path d="M1210.5 308.9h49.7v9.5h-49.7z" transform="matrix(.9995 -.03218 .03218 .9995 -9.453 39.9126)"/>
  </clipPath>
  <clipPath id="az">
    <path d="M0-1h2560v1152H0z"/>
  </clipPath>
  <clipPath id="aA">
    <path d="M1211 325.7h49.7v9.5H1211z" transform="matrix(.9995 -.03218 .03218 .9995 -9.9936 39.9389)"/>
  </clipPath>
  <clipPath id="aB">
    <path d="M0-1h2560v1152H0z"/>
  </clipPath>
  <clipPath id="aC">
    <path d="M1261.4 351.2l-49.7 1.5-.3-9.4 49.7-1.6z"/>
  </clipPath>
  <clipPath id="aD">
    <path d="M0-1h2560v1152H0z"/>
  </clipPath>
  <clipPath id="aE">
    <path d="M1212.1 359.2h49.7v9.5h-49.7z" transform="matrix(.9995 -.03218 .03218 .9995 -11.071 39.9917)"/>
  </clipPath>
  <clipPath id="aF">
    <path d="M0-1h2560v1152H0z"/>
  </clipPath>
  <clipPath id="aG">
    <path d="M1262 385.2l-49.7 1.5-.3-9.4 49.7-1.6z"/>
  </clipPath>
  <clipPath id="aH">
    <path d="M0-1h2560v1152H0z"/>
  </clipPath>
  <clipPath id="aI">
    <path d="M1212.1 393.7h49.7v9.5h-49.7z" transform="matrix(.9995 -.03218 .03218 .9995 -12.1811 40.0096)"/>
  </clipPath>
  <clipPath id="aJ">
    <path d="M0-1h2560v1152H0z"/>
  </clipPath>
  <clipPath id="aK">
    <path d="M1212.1 410.9h49.7v9.5h-49.7z" transform="matrix(.9995 -.03218 .03218 .9995 -12.7341 40.017)"/>
  </clipPath>
  <clipPath id="aL">
    <path d="M0-1h2560v1152H0z"/>
  </clipPath>
  <clipPath id="aM">
    <path d="M264.2 344.8c3 0 41.2.7 41.2.7l-21.3-114z"/>
  </clipPath>
  <clipPath id="aN">
    <path d="M0-1h2560v1152H0z"/>
  </clipPath>
  <clipPath id="aO">
    <path d="M449.6 292.5c1.9 0 25.3.4 25.3.4l-13.1-70.1z"/>
  </clipPath>
  <clipPath id="aP">
    <path d="M0-1h2560v1152H0z"/>
  </clipPath>
  <clipPath id="aQ">
    <path d="M281.7 360.5l1.7-62.8 1.2.1 2.8 62.8z"/>
  </clipPath>
  <clipPath id="aR">
    <path d="M0-1h2560v1152H0z"/>
  </clipPath>
  <clipPath id="aS">
    <path d="M297.5 327.4c2.8 0 37.6.6 37.6.6l-19.5-104.1z"/>
  </clipPath>
  <clipPath id="aT">
    <path d="M0-1h2560v1152H0z"/>
  </clipPath>
  <clipPath id="aU">
    <path d="M313.2 343.5l1.8-62.8h1.2l2.7 62.9z"/>
  </clipPath>
  <clipPath id="aV">
    <path d="M0-1h2560v1152H0z"/>
  </clipPath>
  <clipPath id="aW">
    <path d="M379.6 293.8c3.4.1 46.4.7 46.4.7l-24-128.3z"/>
  </clipPath>
  <clipPath id="aX">
    <path d="M0-1h2560v1152H0z"/>
  </clipPath>
  <clipPath id="aY">
    <path d="M241.8 339.6c2.2 0 30 .5 30 .5l-15.5-83z"/>
  </clipPath>
  <clipPath id="aZ">
    <path d="M0-1h2560v1152H0z"/>
  </clipPath>
  <clipPath id="ba">
    <path d="M254.1 372.4l1.9-65.7h1.2l2.9 65.8z"/>
  </clipPath>
  <clipPath id="bb">
    <path d="M0-1h2560v1152H0z"/>
  </clipPath>
  <clipPath id="bc">
    <path d="M139.6 384.4c2.6 0 35.6.6 35.6.6l-18.4-98.5z"/>
  </clipPath>
  <clipPath id="bd">
    <path d="M0-1h2560v1152H0z"/>
  </clipPath>
  <clipPath id="be">
    <path d="M154.2 423.4l2.1-78h1.5l3.4 78.1z"/>
  </clipPath>
  <clipPath id="bf">
    <path d="M0-1h2560v1152H0z"/>
  </clipPath>
  <clipPath id="bg">
    <path d="M53.9 405c2 0 27 .4 27 .4l-14-74.7z"/>
  </clipPath>
  <clipPath id="bh">
    <path d="M0-1h2560v1152H0z"/>
  </clipPath>
  <clipPath id="bi">
    <path d="M65 434.6l1.6-59.2h1.2l2.5 59.3z"/>
  </clipPath>
  <clipPath id="bj">
    <path d="M0-1h2560v1152H0z"/>
  </clipPath>
  <clipPath id="bk">
    <path d="M461.3 313.7l1.3-48.9h1l2.1 49z"/>
  </clipPath>
  <clipPath id="bl">
    <path d="M0-1h2560v1152H0z"/>
  </clipPath>
  <clipPath id="bm">
    <path d="M400.1 318.4l1.6-59h1.2l2.5 59.1z"/>
  </clipPath>
  <clipPath id="bn">
    <path d="M0-1h2560v1152H0z"/>
  </clipPath>
  <clipPath id="bo">
    <path d="M2397 360.5l40.1-1-2.5-100.8-40.5-12z"/>
  </clipPath>
  <clipPath id="bp">
    <path d="M0-1h2560v1152H0z"/>
  </clipPath>
  <clipPath id="bq">
    <path d="M2453.4 228.5l39 1.5-.8 141.4-34.9-7.9z"/>
  </clipPath>
  <clipPath id="br">
    <path d="M0-1h2560v1152H0z"/>
  </clipPath>
  <clipPath id="bs">
    <path d="M2340.6 271.4l34.4-.8 2.3 91-34.5.9z"/>
  </clipPath>
  <clipPath id="bt">
    <path d="M0-1h2560v1152H0z"/>
  </clipPath>
  <clipPath id="bu">
    <path d="M2280.1 222.6l34.5-.8 3.4 139.4-34.4.9z"/>
  </clipPath>
  <clipPath id="bv">
    <path d="M0-1h2560v1152H0z"/>
  </clipPath>
  <clipPath id="bw">
    <path d="M2205.2 241.3l49.3-1.2 3.1 122.6-49.4 1.2z"/>
  </clipPath>
  <clipPath id="bx">
    <path d="M0-1h2560v1152H0z"/>
  </clipPath>
  <clipPath id="by">
    <path d="M2103.4 283.8l75.1-1.9-.3-11.6-75 1.8z"/>
  </clipPath>
  <clipPath id="bz">
    <path d="M0-1h2560v1152H0z"/>
  </clipPath>
  <clipPath id="bA">
    <path d="M2103.8 291.9h75v11.7h-75z" transform="matrix(.9997 -.02533 .02533 .9997 -6.8528 54.3263)"/>
  </clipPath>
  <clipPath id="bB">
    <path d="M0-1h2560v1152H0z"/>
  </clipPath>
  <clipPath id="bC">
    <path d="M2104.5 325.1l75-1.8-.3-11.7-75 1.9z"/>
  </clipPath>
  <clipPath id="bD">
    <path d="M0-1h2560v1152H0z"/>
  </clipPath>
  <clipPath id="bE">
    <path d="M2105 345.8l75-1.8-.3-11.7-75 1.8z"/>
  </clipPath>
  <clipPath id="bF">
    <path d="M0-1h2560v1152H0z"/>
  </clipPath>
  <clipPath id="bG">
    <path d="M2105.3 353.9h75v11.7h-75z" transform="matrix(.9997 -.02533 .02533 .9997 -8.4225 54.3842)"/>
  </clipPath>
  <clipPath id="bH">
    <path d="M0-1h2560v1152H0z"/>
  </clipPath>
  <clipPath id="bI">
    <path d="M1845.9 858.9c22.3-159 54.8-316.6 97.3-471.5-188.6-36.1-384.7-69.7-570.9-22.7-74.9 18.9-146 50.4-219.8 73.1s-153 36.4-228.2 18.7c-130.6-30.8-222.6-127-369.7-148.3 0 0-184-32.3-404 107.2C100.5 447 48.4 431.8 0 401.4v405.7l1847.2 42.2z"/>
  </clipPath>
  <clipPath id="bJ">
    <path d="M0-1h2560v1152H0z"/>
  </clipPath>
  <clipPath id="bK">
    <path d="M0 1164h649L0 1149.4z"/>
  </clipPath>
  <clipPath id="bL">
    <path d="M0-1h2560v1152H0z"/>
  </clipPath>
  <clipPath id="bM">
    <path d="M863.1 528.2C602.3 550.1 583.3 648.8 358.5 673 250.6 684.7 113.4 624 0 557.9v591.5l649 14.6h902.3L1452 772.6c-196.2-149.5-328.2-266.4-588.9-244.4z"/>
  </clipPath>
  <clipPath id="bN">
    <path d="M0-1h2560v1152H0z"/>
  </clipPath>
  <clipPath id="bO">
    <path d="M0 465.1v607.1l675.9-57.9C521.9 705.2 243.6 546.6 0 465.1z"/>
  </clipPath>
  <clipPath id="bP">
    <path d="M0-1h2560v1152H0z"/>
  </clipPath>
  <clipPath id="bQ">
    <path d="M1262.7 769.4c-11.2 26-20.4 52.8-27.5 80.3z"/>
  </clipPath>
  <clipPath id="bR">
    <path d="M0-1h2560v1152H0z"/>
  </clipPath>
  <clipPath id="bS">
    <path d="M2011.6 325.4c-142.9-.8-333.1 53.4-475.8 139.9-118.3 71.8-218.8 177.8-273.2 304.1l-27.5 80.3c7.1-27.6 16.3-54.4 27.5-80.3v-.1c-78.2-5.1-196.2-6.5-264.5 16.7-287.6 97.6-305.5 339.8-305.5 339.8l1867.3 33.3V387.3c-170.9-56.8-383.3-61-548.3-61.9z"/>
  </clipPath>
  <clipPath id="bT">
    <path d="M0-1h2560v1152H0z"/>
  </clipPath>
  <clipPath id="bU">
    <path d="M993.1 626.1c-.1.1-.3.1-.4.2-.4.1-.8.1-1.2.2.7 0 1.3 0 1.8-.2.6.3.7.3.1 0-.1-.1-.2-.2-.3-.2"/>
  </clipPath>
  <clipPath id="bV">
    <path d="M0-1h2560v1152H0z"/>
  </clipPath>
  <clipPath id="bW">
    <path d="M144.1 692.8c.6-4.7 1.2-9.5 3.7-13.5s7.5-6.8 11.9-5.3c2.9 1 5 3.5 7.1 5.7.6.6 1.2 1.2 2 1.4 1.4.4 2.8-.3 4.2-.5 3-.4 5.9 1.4 7.6 3.9s2.2 5.6 2.4 8.5c0 .4 0 .9-.2 1.3-.3.4-.9.5-1.4.6-10.8 1.5-21.7.4-32.5-1-1.3-.2-2.6-.4-3.8-1"/>
  </clipPath>
  <clipPath id="bX">
    <path d="M0-1h2560v1152H0z"/>
  </clipPath>
  <clipPath id="bY">
    <path d="M191 715.5c.1.1.3.1.5.2.4.1.9.1 1.3.2-.7 0-1.5 0-1.9-.3-.7.3-.7.3-.1 0 0 0 .1-.1.2-.1"/>
  </clipPath>
  <clipPath id="bZ">
    <path d="M0-1h2560v1152H0z"/>
  </clipPath>
  <clipPath id="ca">
    <path d="M198.3 718.4v-.2c0-.8.1-1.5.1-2.2.4-4.6 1.7-9 3.8-13.1 2-3.9 5.1-8.1 8.8-10.5 1.8-1.1 3.5-1.4 5.1-.9h.1c.9 0 1.6.4 2.1 1 1.1.7 2.1 1.7 2.9 2.8 2.5 3.4 4.8 7 6.9 10.8 1.3 2 2.6 4 3.8 6.1s2.3 4.1 3.4 6.2c.8 1.5 1.5 3 2.2 4.5 1.2 2.6 2.7 5.4.1 7.7-2.5 2.3-6.6 2-9.7 2.1-4.2.1-8.3.1-12.5.1-2.3 0-5.6.2-8.7-.1-.9-1-5.9.2-7.7-4.6h-.1c-1.2-2.9-1.2-6.3-.6-9.7"/>
  </clipPath>
  <clipPath id="cb">
    <path d="M0-1h2560v1152H0z"/>
  </clipPath>
  <clipPath id="cc">
    <path d="M130 691.3c3.1-2.9 7.6-5.8 12.1-6h.1c1.9 0 3.4.6 4.7 1.7.1.1.2.1.3.2 1 .9 1.8 1.8 2.7 2.8.1.2.3.3.4.5.9 1 1.8 2.1 1.4 3.6-.7 2.3-3.6 2.4-5.9 2.2-5 .3-9.9-.2-14.8-1.3-1.6-.4-2.2-2.6-1-3.7"/>
  </clipPath>
  <clipPath id="cd">
    <path d="M0-1h2560v1152H0z"/>
  </clipPath>
  <clipPath id="ce">
    <path d="M674.3 448.4c.1.1.3.1.4.2.4.1.8.1 1.2.2-.7 0-1.4 0-1.8-.2-.6.3-.7.3-.1 0 .2-.1.3-.1.3-.2"/>
  </clipPath>
  <clipPath id="cf">
    <path d="M0-1h2560v1152H0z"/>
  </clipPath>
  <clipPath id="cg">
    <path d="M631.5 430.7c3-2.8 7.2-5.5 11.4-5.6h.1c1.8 0 3.2.6 4.4 1.6.1.1.2.1.3.2.9.8 1.8 1.7 2.6 2.6.1.2.3.3.4.5.8 1 1.7 2 1.3 3.4-.7 2.2-3.4 2.3-5.6 2.1-4.7.3-9.4-.2-14-1.2-1.5-.4-2-2.5-.9-3.6"/>
  </clipPath>
  <clipPath id="ch">
    <path d="M0-1h2560v1152H0z"/>
  </clipPath>
  <clipPath id="ci">
    <path d="M672.3 451.3c3.7 1.1 8.5.6 12.4.4h.2c1.2 0 2.8.3 3.6-.8 1.3-1.8-.5-3.2-2.3-3.8-.7-1.1-1.1-2.5-2.3-3.3-1.1-.8-2.4-.9-3.7-.7-2.7.4-7.1 2.1-9.2 4-1.7 1.5-.9 3.5 1.3 4.2"/>
  </clipPath>
  <clipPath id="cj">
    <path d="M0-1h2560v1152H0z"/>
  </clipPath>
  <clipPath id="ck">
    <path d="M1532.1 770.2c.6-4.7 1.2-9.5 3.7-13.5s7.5-6.8 11.9-5.3c2.9 1 5 3.5 7.1 5.7.6.6 1.2 1.2 2 1.4 1.4.4 2.8-.3 4.2-.5 3-.4 5.9 1.4 7.6 3.9s2.2 5.6 2.4 8.5c0 .4 0 .9-.2 1.3-.3.4-.9.5-1.4.6-10.8 1.5-21.7.4-32.5-1-1.3-.2-2.6-.4-3.8-1"/>
  </clipPath>
  <clipPath id="cl">
    <path d="M0-1h2560v1152H0z"/>
  </clipPath>
  <clipPath id="cm">
    <path d="M1579 792.9c.1.1.3.1.5.2.4.1.9.1 1.3.2-.7 0-1.5 0-1.8-.4l-.2.1s.1-.1.2-.1"/>
  </clipPath>
  <clipPath id="cn">
    <path d="M0-1h2560v1152H0z"/>
  </clipPath>
  <clipPath id="co">
    <path d="M1586.3 795.8v-.2c0-.8.1-1.5.1-2.2.4-4.6 1.7-9 3.8-13.1 2-3.9 5.1-8.1 8.8-10.5 1.8-1.1 3.5-1.4 5.1-.9h.1c.9 0 1.6.4 2.1 1 1.1.7 2.1 1.7 2.9 2.8 2.5 3.4 4.8 7 6.9 10.8 1.3 2 2.6 4 3.8 6.1s2.3 4.1 3.4 6.2c.8 1.5 1.5 3 2.2 4.5 1.2 2.6 2.7 5.4.1 7.7-2.5 2.3-6.6 2-9.7 2.1-4.2.1-8.3.1-12.5.1-2.3 0-5.6.2-8.7-.1-.9-1-5.9.2-7.7-4.6h-.1c-1.2-2.9-1.2-6.3-.6-9.7"/>
  </clipPath>
  <clipPath id="cp">
    <path d="M0-1h2560v1152H0z"/>
  </clipPath>
  <clipPath id="cq">
    <path d="M1518 768.7c3.1-2.9 7.6-5.8 12.1-6h.1c1.9 0 3.4.6 4.7 1.7.1.1.2.1.3.2 1 .9 1.8 1.8 2.7 2.8.1.2.3.3.4.5.9 1 1.8 2.1 1.4 3.6-.7 2.3-3.6 2.4-5.9 2.2-5 .3-9.9-.2-14.8-1.3-1.6-.4-2.2-2.6-1-3.7"/>
  </clipPath>
  <clipPath id="cr">
    <path d="M0-1h2560v1152H0z"/>
  </clipPath>
  <clipPath id="cs">
    <path d="M1024.2 594.6v-.2c0-.7-.1-1.4-.1-2-.4-4.2-1.5-8.3-3.5-12-1.9-3.6-4.6-7.4-8.1-9.6-1.6-1.1-3.2-1.2-4.7-.8h-.1c-.8 0-1.5.4-1.9.9-1 .6-1.9 1.5-2.7 2.6-2.3 3.1-4.4 6.4-6.3 9.9-1.2 1.8-2.4 3.7-3.5 5.6s-2.1 3.8-3.1 5.7c-.7 1.4-1.4 2.8-2.1 4.1-1.1 2.4-2.4 4.9-.1 7.1 2.3 2.1 6.1 1.9 8.9 1.9 3.8.1 7.6.1 11.5.1 2.1 0 5.2.2 8-.1.8-.9 1.6-1.7 2.5-2.6.1-.1.2-.1.3-.2 1.2-1 2.6-1.6 4.3-1.5h.1c1.1-2.7 1.1-5.8.6-8.9"/>
  </clipPath>
  <clipPath id="ct">
    <path d="M0-1h2560v1152H0z"/>
  </clipPath>
  <clipPath id="cu">
    <path d="M1034.6 608.9c-2.9-2.7-7-5.3-11.1-5.5h-.1c-1.7 0-3.1.6-4.3 1.5-.1.1-.2.1-.3.2-.9.8-1.7 1.7-2.5 2.6-.1.2-.3.3-.4.5-.8 1-1.7 1.9-1.3 3.3.6 2.1 3.3 2.2 5.4 2 4.6.2 9.1-.2 13.6-1.2 1.6-.4 2.1-2.4 1-3.4"/>
  </clipPath>
  <clipPath id="cv">
    <path d="M0-1h2560v1152H0z"/>
  </clipPath>
  <clipPath id="cw">
    <path d="M996.2 624.6c-2-1.8-6.2-3.5-8.9-3.8-1.2-.2-2.5 0-3.5.7-1.1.8-1.5 2.1-2.2 3.2-1.7.6-3.5 2-2.2 3.7.8 1.1 2.3.8 3.5.8h.2c3.8.3 8.5.7 12.1-.4 2-.6 2.8-2.6 1-4.2"/>
  </clipPath>
  <clipPath id="cx">
    <path d="M0-1h2560v1152H0z"/>
  </clipPath>
  <path fill="#fff" d="M0-1h2560v1152H0z"/>
  <g clip-path="url(#a)">
    <path fill="#faf8f2" d="M-5-5h2570v1174H-5z" clip-path="url(#b)"/>
  </g>
  <g clip-path="url(#c)">
    <path fill="#faf0e3" d="M1827.8 247h40v93.1h-40z" clip-path="url(#d)"/>
  </g>
  <g clip-path="url(#e)">
    <path fill="#f4e6d4" d="M1840.6 295.3h14.1v55.9h-14.1z" clip-path="url(#f)"/>
  </g>
  <g clip-path="url(#g)">
    <path fill="#f4e6d4" d="M1916.1 272.5h28.5v61.2h-28.5z" clip-path="url(#h)"/>
  </g>
  <g clip-path="url(#i)">
    <path fill="#f4e6d4" d="M1799 279.4h28.5v61.2H1799z" clip-path="url(#j)"/>
  </g>
  <g clip-path="url(#k)">
    <path fill="#f4e6d4" d="M1839.1 256.3h37.4v86h-37.4z" clip-path="url(#l)"/>
  </g>
  <g clip-path="url(#m)">
    <path fill="#faf0e3" d="M1850.6 297.9h14.1v55.8h-14.1z" clip-path="url(#n)"/>
  </g>
  <g clip-path="url(#o)">
    <path fill="#faf0e3" d="M1882.2 240.7h38.1v87.7h-38.1z" clip-path="url(#p)"/>
  </g>
  <g clip-path="url(#q)">
    <path fill="#faf0e3" d="M1806.6 310h13.7v50.6h-13.7z" clip-path="url(#r)"/>
  </g>
  <g clip-path="url(#s)">
    <path fill="#faf0e3" d="M1924.6 303.2h13.2v45.7h-13.2z" clip-path="url(#t)"/>
  </g>
  <g clip-path="url(#u)">
    <path fill="#f4e6d4" d="M1894.6 297.1h13.2v45.8h-13.2z" clip-path="url(#v)"/>
  </g>
  <g clip-path="url(#w)">
    <path fill="#faf0e3" d="M681.2 173.2h70.5v177.5h-70.5z" clip-path="url(#x)"/>
  </g>
  <g clip-path="url(#y)">
    <path fill="#f4e6d4" d="M706.9 270.6h18.3V373h-18.3z" clip-path="url(#z)"/>
  </g>
  <g clip-path="url(#A)">
    <path fill="#f4e6d4" d="M860 272.3h47.2v113.1H860z" clip-path="url(#B)"/>
  </g>
  <g clip-path="url(#C)">
    <path fill="#f4e6d4" d="M655.7 209.5h47.2v113.1h-47.2z" clip-path="url(#D)"/>
  </g>
  <g clip-path="url(#E)">
    <path fill="#f4e6d4" d="M759 210.8h65.3v163.1H759z" clip-path="url(#F)"/>
  </g>
  <g clip-path="url(#G)">
    <path fill="#faf0e3" d="M782.1 294.4h18.4v102.4h-18.4z" clip-path="url(#H)"/>
  </g>
  <g clip-path="url(#I)">
    <path fill="#faf0e3" d="M791.6 201.1h66.6v166.6h-66.6z" clip-path="url(#J)"/>
  </g>
  <g clip-path="url(#K)">
    <path fill="#faf0e3" d="M671 271.1h17.4v91.8H671z" clip-path="url(#L)"/>
  </g>
  <g clip-path="url(#M)">
    <path fill="#fff" d="M877.1 334h16.5v82.1h-16.5z" clip-path="url(#N)"/>
  </g>
  <g clip-path="url(#O)">
    <path fill="#f4e6d4" d="M815.2 294.9h18.4v102.4h-18.4z" clip-path="url(#P)"/>
  </g>
  <g clip-path="url(#Q)">
    <path fill="#faf0e3" d="M576.1 374.2H1004v107.1H576.1z" clip-path="url(#R)"/>
  </g>
  <g clip-path="url(#S)">
    <path fill="#f4e6d4" d="M887.6 347.5h88.5v56.2h-88.5z" clip-path="url(#T)"/>
  </g>
  <g clip-path="url(#U)">
    <path fill="#faf0e3" d="M1005.9 350.2h133.6V480h-133.6z" clip-path="url(#V)"/>
  </g>
  <g clip-path="url(#W)">
    <path fill="#faf0e3" d="M836.4 365.3h156.4v132.5H836.4z" clip-path="url(#X)"/>
  </g>
  <g clip-path="url(#Y)">
    <path fill="#faf0e3" d="M931.8 321.7h137.7v173.4H931.8z" clip-path="url(#Z)"/>
  </g>
  <g clip-path="url(#aa)">
    <path fill="#faf0e3" d="M1273.1 289.1h39v112.6h-39z" clip-path="url(#ab)"/>
  </g>
  <g clip-path="url(#ac)">
    <path fill="#faf0e3" d="M1360.6 267.6h45.1V371h-45.1z" clip-path="url(#ad)"/>
  </g>
  <g clip-path="url(#ae)">
    <path fill="#faf0e3" d="M1311.5 270.8h45.1v120.4h-45.1z" clip-path="url(#af)"/>
  </g>
  <g clip-path="url(#ag)">
    <path fill="#faf0e3" d="M1403.3 203h54.6v166.8h-54.6z" clip-path="url(#ah)"/>
  </g>
  <g clip-path="url(#ai)">
    <path fill="#faf0e3" d="M1431.3 284h40.3v84.8h-40.3z" clip-path="url(#aj)"/>
  </g>
  <g clip-path="url(#ak)">
    <path fill="#faf0e3" d="M1478 241.6h41.6v124.1H1478z" clip-path="url(#al)"/>
  </g>
  <g clip-path="url(#am)">
    <path fill="#faf0e3" d="M1527.5 253.3h53.2v110.8h-53.2z" clip-path="url(#an)"/>
  </g>
  <g clip-path="url(#ao)">
    <path fill="#faf0e3" d="M1590.8 273.6h71.1V295h-71.1z" clip-path="url(#ap)"/>
  </g>
  <g clip-path="url(#aq)">
    <path fill="#faf0e3" d="M1591.3 290.4h71.2v21.4h-71.2z" clip-path="url(#ar)"/>
  </g>
  <g clip-path="url(#as)">
    <path fill="#faf0e3" d="M1591.8 307.2h71.2v21.4h-71.2z" clip-path="url(#at)"/>
  </g>
  <g clip-path="url(#au)">
    <path fill="#faf0e3" d="M1592.4 323.9h71.2v21.5h-71.2z" clip-path="url(#av)"/>
  </g>
  <g clip-path="url(#aw)">
    <path fill="#faf0e3" d="M1592.9 340.7h71.2v21.4h-71.2z" clip-path="url(#ax)"/>
  </g>
  <g clip-path="url(#ay)">
    <path fill="#faf0e3" d="M1205.4 303.1h60v21.1h-60z" clip-path="url(#az)"/>
  </g>
  <g clip-path="url(#aA)">
    <path fill="#faf0e3" d="M1205.9 319.9h60V341h-60z" clip-path="url(#aB)"/>
  </g>
  <g clip-path="url(#aC)">
    <path fill="#faf0e3" d="M1206.4 336.7h60v21h-60z" clip-path="url(#aD)"/>
  </g>
  <g clip-path="url(#aE)">
    <path fill="#faf0e3" d="M1207 353.4h60v21.1h-60z" clip-path="url(#aF)"/>
  </g>
  <g clip-path="url(#aG)">
    <path fill="#faf0e3" d="M1207 370.7h60v21h-60z" clip-path="url(#aH)"/>
  </g>
  <g clip-path="url(#aI)">
    <path fill="#faf0e3" d="M1207 387.9h60V409h-60z" clip-path="url(#aJ)"/>
  </g>
  <g clip-path="url(#aK)">
    <path fill="#faf0e3" d="M1207 405.1h60v21.1h-60z" clip-path="url(#aL)"/>
  </g>
  <g clip-path="url(#aM)">
    <path fill="#faf0e3" d="M259.2 226.5h51.2v124h-51.2z" clip-path="url(#aN)"/>
  </g>
  <g clip-path="url(#aO)">
    <path fill="#f4e6d4" d="M444.6 217.8h35.3v80.1h-35.3z" clip-path="url(#aP)"/>
  </g>
  <g clip-path="url(#aQ)">
    <path fill="#f4e6d4" d="M276.7 292.7h15.7v72.9h-15.7z" clip-path="url(#aR)"/>
  </g>
  <g clip-path="url(#aS)">
    <path fill="#f4e6d4" d="M292.5 218.9h47.6V333h-47.6z" clip-path="url(#aT)"/>
  </g>
  <g clip-path="url(#aU)">
    <path fill="#faf0e3" d="M308.2 275.7h15.7v72.9h-15.7z" clip-path="url(#aV)"/>
  </g>
  <g clip-path="url(#aW)">
    <path fill="#faf0e3" d="M374.6 161.2H431v138.3h-56.4z" clip-path="url(#aX)"/>
  </g>
  <g clip-path="url(#aY)">
    <path fill="#f4e6d4" d="M236.8 252.1h40v93h-40z" clip-path="url(#aZ)"/>
  </g>
  <g clip-path="url(#ba)">
    <path fill="#faf0e3" d="M249.1 301.7h16v75.8h-16z" clip-path="url(#bb)"/>
  </g>
  <g clip-path="url(#bc)">
    <path fill="#f4e6d4" d="M134.6 281.5h45.6V390h-45.6z" clip-path="url(#bd)"/>
  </g>
  <g clip-path="url(#be)">
    <path fill="#faf0e3" d="M149.2 340.4h17v88.1h-17z" clip-path="url(#bf)"/>
  </g>
  <g clip-path="url(#bg)">
    <path fill="#f4e6d4" d="M48.9 325.7h37v84.7h-37z" clip-path="url(#bh)"/>
  </g>
  <g clip-path="url(#bi)">
    <path fill="#faf0e3" d="M60 370.4h15.3v69.3H60z" clip-path="url(#bj)"/>
  </g>
  <g clip-path="url(#bk)">
    <path fill="#faf0e3" d="M456.3 259.8h14.4v59h-14.4z" clip-path="url(#bl)"/>
  </g>
  <g clip-path="url(#bm)">
    <path fill="#f4e6d4" d="M395.1 254.4h15.3v69.1h-15.3z" clip-path="url(#bn)"/>
  </g>
  <g clip-path="url(#bo)">
    <path fill="#faf0e3" d="M2389.1 241.7h53v123.8h-53z" clip-path="url(#bp)"/>
  </g>
  <g clip-path="url(#bq)">
    <path fill="#faf0e3" d="M2448.4 223.5h49v152.9h-49z" clip-path="url(#br)"/>
  </g>
  <g clip-path="url(#bs)">
    <path fill="#faf0e3" d="M2335.6 265.6h46.7v101.9h-46.7z" clip-path="url(#bt)"/>
  </g>
  <g clip-path="url(#bu)">
    <path fill="#faf0e3" d="M2275.1 216.8h47.9v150.3h-47.9z" clip-path="url(#bv)"/>
  </g>
  <g clip-path="url(#bw)">
    <path fill="#faf0e3" d="M2200.2 235.1h62.4v133.8h-62.4z" clip-path="url(#bx)"/>
  </g>
  <g clip-path="url(#by)">
    <path fill="#faf0e3" d="M2098.2 265.3h85.3v23.5h-85.3z" clip-path="url(#bz)"/>
  </g>
  <g clip-path="url(#bA)">
    <path fill="#faf0e3" d="M2098.7 285.9h85.3v23.6h-85.3z" clip-path="url(#bB)"/>
  </g>
  <g clip-path="url(#bC)">
    <path fill="#faf0e3" d="M2099.2 306.6h85.3v23.5h-85.3z" clip-path="url(#bD)"/>
  </g>
  <g clip-path="url(#bE)">
    <path fill="#faf0e3" d="M2099.7 327.3h85.3v23.5h-85.3z" clip-path="url(#bF)"/>
  </g>
  <g clip-path="url(#bG)">
    <path fill="#faf0e3" d="M2100.2 347.9h85.3v23.6h-85.3z" clip-path="url(#bH)"/>
  </g>
  <g clip-path="url(#bI)">
    <path fill="#f4e6d4" d="M-5 300h1953.2v563.9H-5z" clip-path="url(#bJ)"/>
  </g>
  <g clip-path="url(#bK)">
    <path fill="#faf8f2" d="M-5 1144.4h659v24.6H-5z" clip-path="url(#bL)"/>
  </g>
  <g clip-path="url(#bM)">
    <path fill="#faf0e3" d="M-5 520.5h1561.3V1169H-5z" clip-path="url(#bN)"/>
  </g>
  <g clip-path="url(#bO)">
    <path fill="#fcf6ec" d="M-5 460.1h685.9v617.1H-5z" clip-path="url(#bP)"/>
  </g>
  <g clip-path="url(#bQ)">
    <path fill="#fcf6ec" d="M1230.2 764.4h37.5v90.3h-37.5z" clip-path="url(#bR)"/>
  </g>
  <g clip-path="url(#bS)">
    <path fill="#fcf6ec" d="M687.6 320.4h1877.3v843.7H687.6z" clip-path="url(#bT)"/>
  </g>
  <g clip-path="url(#bU)">
    <path fill="#f4e6d4" d="M986.5 621.1h12.3v10.4h-12.3z" clip-path="url(#bV)"/>
  </g>
  <g clip-path="url(#bW)">
    <path fill="#f4e6d4" d="M139.1 668.6H188v32h-48.9z" clip-path="url(#bX)"/>
  </g>
  <g clip-path="url(#bY)">
    <path fill="#f4e6d4" d="M185.4 710.5h12.4v10.4h-12.4z" clip-path="url(#bZ)"/>
  </g>
  <g clip-path="url(#ca)">
    <path fill="#f4e6d4" d="M192.9 686.3H244v51.6h-51.1z" clip-path="url(#cb)"/>
  </g>
  <g clip-path="url(#cc)">
    <path fill="#fed58c" d="M124.4 680.3h32.4v21.1h-32.4z" clip-path="url(#cd)"/>
  </g>
  <g clip-path="url(#ce)">
    <path fill="#faf0e3" d="M668.6 443.4h12.3v10.4h-12.3z" clip-path="url(#cf)"/>
  </g>
  <g clip-path="url(#cg)">
    <path fill="#faf0e3" d="M625.9 420.1h31.2v20.5h-31.2z" clip-path="url(#ch)"/>
  </g>
  <g clip-path="url(#ci)">
    <path fill="#faf0e3" d="M665.1 438H694v19h-28.9z" clip-path="url(#cj)"/>
  </g>
  <g clip-path="url(#ck)">
    <path fill="#f4e6d4" d="M1527.1 746h48.9v32h-48.9z" clip-path="url(#cl)"/>
  </g>
  <g clip-path="url(#cm)">
    <path fill="#f4e6d4" d="M1573.4 787.9h12.4v10.4h-12.4z" clip-path="url(#cn)"/>
  </g>
  <g clip-path="url(#co)">
    <path fill="#f4e6d4" d="M1580.9 763.7h51.1v51.6h-51.1z" clip-path="url(#cp)"/>
  </g>
  <g clip-path="url(#cq)">
    <path fill="#fed58c" d="M1512.4 757.7h32.4v21.1h-32.4z" clip-path="url(#cr)"/>
  </g>
  <g clip-path="url(#cs)">
    <path fill="#f4e6d4" d="M981.7 564.8h47.8V613h-47.8z" clip-path="url(#ct)"/>
  </g>
  <g clip-path="url(#cu)">
    <path fill="#fed58c" d="M1009.5 598.4h30.7v20.2h-30.7z" clip-path="url(#cv)"/>
  </g>
  <g clip-path="url(#cw)">
    <path fill="#fed58c" d="M974 615.7h28.2v18.8H974z" clip-path="url(#cx)"/>
  </g>
</svg>
